<svg width="20" height="20" viewBox="0 0 20 20" fill="none" xmlns="http://www.w3.org/2000/svg">
<g clip-path="url(#clip0_8542_108293)">
<path fill-rule="evenodd" clip-rule="evenodd" d="M10.4448 16.2749C10.2007 16.0308 10.2007 15.635 10.4448 15.391L15.7481 10.0877L10.4448 4.78437C10.2007 4.54029 10.2007 4.14456 10.4448 3.90049C10.6889 3.65641 11.0846 3.65641 11.3287 3.90049L17.0739 9.64573C17.318 9.88981 17.318 10.2855 17.0739 10.5296L11.3287 16.2749C11.0846 16.5189 10.6889 16.5189 10.4448 16.2749Z" fill="#989898"/>
<path fill-rule="evenodd" clip-rule="evenodd" d="M3.68696 16.2749C3.44289 16.0308 3.44289 15.635 3.68696 15.391L8.99026 10.0877L3.68696 4.78437C3.44289 4.54029 3.44289 4.14456 3.68696 3.90049C3.93104 3.65641 4.32677 3.65641 4.57085 3.90049L10.3161 9.64573C10.5602 9.88981 10.5602 10.2855 10.3161 10.5296L4.57085 16.2749C4.32677 16.5189 3.93104 16.5189 3.68696 16.2749Z" fill="#989898"/>
</g>
<defs>
<clipPath id="clip0_8542_108293">
<rect width="20" height="20" fill="white"/>
</clipPath>
</defs>
</svg>
