<svg width="60" height="61" viewBox="0 0 60 61" fill="none" xmlns="http://www.w3.org/2000/svg">
<path d="M27.4297 26.1016V36H26.1855V27.3867H26.1309L23.7246 28.9863V27.7422L26.1855 26.1016H27.4297ZM33.3086 36.1367C31.1074 36.1367 29.8496 34.291 29.8496 31.0508C29.8496 27.8379 31.1348 25.9648 33.3086 25.9648C35.4824 25.9648 36.7676 27.8379 36.7676 31.0508C36.7676 34.291 35.4961 36.1367 33.3086 36.1367ZM33.3086 35.043C34.7305 35.043 35.5645 33.6074 35.5645 31.0508C35.5645 28.4941 34.7305 27.0312 33.3086 27.0312C31.8867 27.0312 31.0391 28.4941 31.0391 31.0508C31.0391 33.6074 31.873 35.043 33.3086 35.043Z" fill="white"/>
<path d="M51.0607 13.0607C51.6464 12.4749 51.6464 11.5251 51.0607 10.9393L41.5147 1.3934C40.9289 0.807611 39.9792 0.807611 39.3934 1.3934C38.8076 1.97919 38.8076 2.92893 39.3934 3.51472L47.8787 12L39.3934 20.4853C38.8076 21.0711 38.8076 22.0208 39.3934 22.6066C39.9792 23.1924 40.9289 23.1924 41.5147 22.6066L51.0607 13.0607ZM29.3103 48.5C19.451 48.5 11.5 40.6422 11.5 31H8.5C8.5 42.3447 17.8401 51.5 29.3103 51.5V48.5ZM11.5 31C11.5 21.3578 19.451 13.5 29.3103 13.5V10.5C17.8401 10.5 8.5 19.6553 8.5 31H11.5ZM41.5437 43.7186C38.3541 46.6817 34.0517 48.5 29.3103 48.5V51.5C34.8325 51.5 39.8584 49.3791 43.5856 45.9166L41.5437 43.7186ZM29.3103 13.5H50V10.5H29.3103V13.5Z" fill="white"/>
</svg>
