<svg width="60" height="61" viewBox="0 0 60 61" fill="none" xmlns="http://www.w3.org/2000/svg">
<path d="M27.4297 26.1016V36H26.1855V27.3867H26.1309L23.7246 28.9863V27.7422L26.1855 26.1016H27.4297ZM33.3086 36.1367C31.1074 36.1367 29.8496 34.291 29.8496 31.0508C29.8496 27.8379 31.1348 25.9648 33.3086 25.9648C35.4824 25.9648 36.7676 27.8379 36.7676 31.0508C36.7676 34.291 35.4961 36.1367 33.3086 36.1367ZM33.3086 35.043C34.7305 35.043 35.5645 33.6074 35.5645 31.0508C35.5645 28.4941 34.7305 27.0312 33.3086 27.0312C31.8867 27.0312 31.0391 28.4941 31.0391 31.0508C31.0391 33.6074 31.873 35.043 33.3086 35.043Z" fill="white"/>
<path d="M8.93934 13.0607C8.35355 12.4749 8.35355 11.5251 8.93934 10.9393L18.4853 1.3934C19.0711 0.807611 20.0208 0.807611 20.6066 1.3934C21.1924 1.97919 21.1924 2.92893 20.6066 3.51472L12.1213 12L20.6066 20.4853C21.1924 21.0711 21.1924 22.0208 20.6066 22.6066C20.0208 23.1924 19.0711 23.1924 18.4853 22.6066L8.93934 13.0607ZM30.6897 48.5C40.549 48.5 48.5 40.6422 48.5 31H51.5C51.5 42.3447 42.1599 51.5 30.6897 51.5V48.5ZM48.5 31C48.5 21.3578 40.549 13.5 30.6897 13.5V10.5C42.1599 10.5 51.5 19.6553 51.5 31H48.5ZM18.4563 43.7186C21.6459 46.6817 25.9483 48.5 30.6897 48.5V51.5C25.1675 51.5 20.1416 49.3791 16.4144 45.9166L18.4563 43.7186ZM30.6897 13.5H10V10.5H30.6897V13.5Z" fill="white"/>
</svg>
