<svg width="20" height="21" viewBox="0 0 20 21" fill="none" xmlns="http://www.w3.org/2000/svg">
<path d="M0.5 10C0.5 10.2761 0.723858 10.5 1 10.5C1.27614 10.5 1.5 10.2761 1.5 10H0.5ZM3 4.5H9V3.5H3V4.5ZM9 4.5H18V3.5H9V4.5ZM1.5 10V6H0.5V10H1.5ZM3 3.5C1.61929 3.5 0.5 4.61929 0.5 6H1.5C1.5 5.17157 2.17157 4.5 3 4.5V3.5Z" fill="white"/>
<path d="M16 7L18.6464 4.35355C18.8417 4.15829 18.8417 3.84171 18.6464 3.64645L16 1" stroke="white" stroke-linecap="round"/>
<path d="M4 20L1.35355 17.3536C1.15829 17.1583 1.15829 16.8417 1.35355 16.6464L4 14" stroke="white" stroke-linecap="round"/>
<path d="M2 17L11 17H17C18.1046 17 19 16.1046 19 15V11" stroke="white" stroke-linecap="square"/>
</svg>
